<svg width="320" height="85"><defs id="SvgjsDefs1064"></defs><g id="main_text" rel="mainfill" name="main_text" feature="main_text" xmlns:name="mainText_mainfill" groupname="main_text" fill="#2e8089" transform="translate(-1.6793706860334656, -34.58725402721258) scale(4.198423211646326)"><path d="M15.38 11.58 l3.32 0 l0 0.54 c-0.82 0.14 -1.08 0.36 -1.36 1.14 l-3.8 10.84 l-0.24 0 c-0.3 0 -0.5 -0.14 -0.64 -0.48 l-3.08 -7.92 l-2.74 8.4 l-0.22 0 c-0.3 0 -0.5 -0.14 -0.64 -0.48 l-3.86 -9.86 c-0.52 -1.32 -0.86 -1.5 -1.72 -1.64 l0 -0.54 l3.82 0 l0 0.54 c-0.5 0.14 -0.8 0.28 -0.68 0.62 l3.32 8.62 l2.24 -6.88 l-0.28 -0.72 c-0.52 -1.32 -0.86 -1.5 -1.72 -1.64 l0 -0.54 l3.82 0 l0 0.54 c-0.5 0.14 -0.76 0.42 -0.68 0.62 l3.3 8.62 l2.9 -8.42 c0.16 -0.48 -0.3 -0.68 -1.06 -0.82 l0 -0.54 z M21.46 12.56 c-0.52 0 -0.98 -0.44 -0.98 -0.98 c0 -0.52 0.46 -0.96 0.98 -0.96 c0.54 0 1 0.44 1 0.96 c0 0.54 -0.46 0.98 -1 0.98 z M22.32 22.94 c0 0.46 0.34 0.56 0.86 0.56 l0 0.5 l-3.3 0 l0 -0.5 c0.54 0 0.88 -0.1 0.88 -0.56 l0 -6.4 c0 -0.46 -0.16 -0.62 -0.56 -0.62 l-0.4 0 l0 -0.76 l1.88 -0.34 c0.46 -0.08 0.64 0.24 0.64 0.68 l0 7.44 z M32.54 23.02 c0.4 0.4 0.54 0.5 1.12 0.5 l0 0.48 l-3.32 0 l0 -0.48 c0.72 0 0.7 -0.24 0.56 -0.38 l-3.92 -3.7 l0 3.52 c0 0.46 0.3 0.56 0.64 0.56 l0 0.48 l-2.96 0 l0 -0.48 c0.38 0 0.72 -0.1 0.72 -0.56 l0 -10.38 c0 -0.46 -0.14 -0.66 -0.54 -0.66 l-0.56 0 l0 -0.66 l2.22 -0.4 c0.32 -0.06 0.48 0.08 0.48 0.38 l0 7.82 l3.34 -2.96 c0.26 -0.22 0.26 -0.54 -0.56 -0.54 l0 -0.58 c1.06 0.1 2.12 0.1 3.18 0 l0 0.58 c-0.72 0 -0.98 0.16 -1.26 0.42 l-3.3 2.98 z M36.32 12.56 c-0.52 0 -0.98 -0.44 -0.98 -0.98 c0 -0.52 0.46 -0.96 0.98 -0.96 c0.54 0 1 0.44 1 0.96 c0 0.54 -0.46 0.98 -1 0.98 z M37.18 22.94 c0 0.46 0.34 0.56 0.86 0.56 l0 0.5 l-3.3 0 l0 -0.5 c0.54 0 0.88 -0.1 0.88 -0.56 l0 -6.4 c0 -0.46 -0.16 -0.62 -0.56 -0.62 l-0.4 0 l0 -0.76 l1.88 -0.34 c0.46 -0.08 0.64 0.24 0.64 0.68 l0 7.44 z M41.82 22.96 c0 0.46 0.3 0.56 0.64 0.56 l0 0.48 l-2.94 0 l0 -0.48 c0.38 0 0.72 -0.1 0.72 -0.56 l0 -10.38 c0 -0.46 -0.14 -0.66 -0.54 -0.66 l-0.56 0 l0 -0.66 l2.2 -0.4 c0.32 -0.06 0.48 0.08 0.48 0.38 l0 11.72 z M47.980000000000004 14.8 c2.34 0 4.28 1.84 4.28 4.58 c0 2.82 -1.94 4.74 -4.2 4.74 c-2.32 0 -4.3 -1.92 -4.3 -4.58 c0 -2.9 1.98 -4.74 4.22 -4.74 z M50.64 19.84 c0 -2.4 -1.26 -4.22 -2.88 -4.22 c-1.38 0 -2.34 0.92 -2.34 3.46 c0 2.36 1.22 4.12 2.86 4.12 c1.4 0 2.36 -0.9 2.36 -3.36 z M62.10000000000001 14.84 c0.64 0 1 0.34 1 0.78 c0 0.56 -0.36 0.86 -0.74 0.74 c-0.64 -0.18 -0.96 0.04 -0.96 1.44 c0 1.56 -1.22 2.88 -3.66 2.88 c-0.52 0 -1 -0.08 -1.44 -0.24 c-1.82 -0.14 -1.86 1.42 0.22 1.74 l2.04 0.34 c2.72 0.4 3.86 0.92 3.86 2.68 c0 1.98 -1.84 3.2 -4.78 3.2 c-2.72 0 -4.28 -0.86 -4.28 -2.52 c0 -1.48 1.28 -2.2 2.36 -2.42 c-3.06 -0.56 -2.98 -3.6 -0.38 -3.52 c-0.72 -0.52 -1.2 -1.3 -1.2 -2.24 c0 -1.48 1.08 -2.86 3.7 -2.86 c1.48 0 2.64 0.7 2.88 1.34 c0.06 -0.84 0.58 -1.34 1.38 -1.34 z M57.760000000000005 19.94 c1.84 0 2 -1.26 2 -2.26 c0 -1.04 -0.16 -2.08 -2 -2.08 c-1.64 0 -1.96 1.04 -1.96 2.08 c0 1 0.32 2.26 1.96 2.26 z M56.620000000000005 23.58 c-1.08 0.2 -1.58 1.16 -1.58 2.08 c0 1.22 0.84 2.06 2.8 2.06 c2.1 0 3.04 -0.64 3.04 -2.24 c0 -1.04 -0.58 -1.32 -1.84 -1.54 z M65.86000000000001 12.56 c-0.52 0 -0.98 -0.44 -0.98 -0.98 c0 -0.52 0.46 -0.96 0.98 -0.96 c0.54 0 1 0.44 1 0.96 c0 0.54 -0.46 0.98 -1 0.98 z M66.72000000000001 22.94 c0 0.46 0.34 0.56 0.86 0.56 l0 0.5 l-3.3 0 l0 -0.5 c0.54 0 0.88 -0.1 0.88 -0.56 l0 -6.4 c0 -0.46 -0.16 -0.62 -0.56 -0.62 l-0.4 0 l0 -0.76 l1.88 -0.34 c0.46 -0.08 0.64 0.24 0.64 0.68 l0 7.44 z M76.5 22.22 c-0.38 0.74 -1.36 1.9 -3.72 1.9 c-2.16 0 -4 -1.92 -4 -4.68 c0 -3.02 1.92 -4.64 4.12 -4.64 c2.34 0 3.5 1.28 3.5 2.56 c0 0.36 -0.3 0.7 -0.86 0.7 c-0.52 0 -0.88 -0.2 -0.88 -0.64 c0 -1.14 0.06 -1.84 -1.52 -1.84 c-1.94 0 -2.68 0.96 -2.68 3.46 c0 2.04 1.2 4.12 3.14 4.14 c1.32 0 1.6 -0.64 2.12 -1.3 c0.12 -0.2 0.28 -0.18 0.4 -0.04 z"></path></g></svg>
